<svg id="Layer_1" data-name="Layer 1" xmlns="http://www.w3.org/2000/svg" viewBox="0 0 200 200"><defs><style>.cls-1,.cls-10,.cls-11,.cls-12,.cls-13,.cls-14,.cls-16,.cls-17,.cls-18,.cls-2,.cls-20,.cls-22,.cls-24,.cls-25,.cls-27,.cls-29,.cls-3,.cls-30,.cls-31,.cls-32,.cls-33,.cls-34,.cls-35,.cls-36,.cls-37,.cls-38,.cls-39,.cls-4,.cls-40,.cls-41,.cls-42,.cls-43,.cls-5,.cls-6,.cls-8{fill:none;stroke-linecap:round;stroke-linejoin:round;}.cls-1,.cls-10,.cls-11,.cls-12,.cls-13,.cls-14,.cls-16,.cls-17,.cls-18,.cls-2,.cls-20,.cls-22,.cls-24,.cls-25,.cls-27,.cls-3,.cls-31,.cls-32,.cls-33,.cls-34,.cls-36,.cls-39,.cls-4,.cls-40,.cls-43,.cls-5,.cls-6,.cls-8{stroke:#231f20;}.cls-1{stroke-width:0.57px;}.cls-2{stroke-width:0.57px;}.cls-3{stroke-width:0.57px;}.cls-4{stroke-width:0.57px;}.cls-5{stroke-width:0.57px;}.cls-6{stroke-width:0.57px;}.cls-7{fill:#ffca05;}.cls-15,.cls-19,.cls-21,.cls-23,.cls-26,.cls-28,.cls-7,.cls-9{fill-rule:evenodd;}.cls-8{stroke-width:0.57px;}.cls-9{fill:#0094d9;}.cls-10{stroke-width:0.57px;}.cls-11{stroke-width:0.57px;}.cls-12{stroke-width:0.57px;}.cls-13,.cls-42{stroke-width:0.57px;}.cls-14{stroke-width:0.57px;}.cls-15{fill:#cbcbcb;}.cls-16{stroke-width:0.57px;}.cls-17{stroke-width:0.57px;}.cls-18{stroke-width:0.57px;}.cls-19{fill:#fff;}.cls-20{stroke-width:0.57px;}.cls-21{fill:#ff98cb;}.cls-22{stroke-width:0.57px;}.cls-24{stroke-width:0.57px;}.cls-25,.cls-35{stroke-width:0.57px;}.cls-26{fill:#f9d1e3;}.cls-27{stroke-width:0.57px;}.cls-28{fill:#231f20;}.cls-29,.cls-30,.cls-35{stroke:#fff;}.cls-29{stroke-width:0.57px;}.cls-30{stroke-width:0.57px;}.cls-31{stroke-width:0.57px;}.cls-32{stroke-width:0.57px;}.cls-33{stroke-width:0.57px;}.cls-34{stroke-width:0.57px;}.cls-36,.cls-37{stroke-width:0.57px;}.cls-37,.cls-41{stroke:#000;}.cls-38,.cls-42{stroke:red;}.cls-38{stroke-width:0.57px;}.cls-39{stroke-width:0.66px;}.cls-40,.cls-41{stroke-width:0.57px;}.cls-43{stroke-width:0.57px;}</style></defs><line class="cls-1" x1="66.37" y1="132.47" x2="150.82" y2="132.47"/><line class="cls-2" x1="71.95" y1="121.41" x2="144.46" y2="121.41"/><line class="cls-3" x1="80.39" y1="110.1" x2="135.57" y2="110.1"/><line class="cls-3" x1="110.31" y1="121.41" x2="110.31" y2="132.47"/><line class="cls-3" x1="137.28" y1="121.41" x2="137.28" y2="132.47"/><line class="cls-3" x1="83.65" y1="121.41" x2="83.65" y2="132.31"/><line class="cls-4" x1="96.88" y1="121.41" x2="96.88" y2="110.52"/><line class="cls-4" x1="123.41" y1="121.41" x2="123.41" y2="110.52"/><line class="cls-1" x1="66.37" y1="110.1" x2="150.82" y2="110.1"/><line class="cls-5" x1="61.64" y1="99.04" x2="154.74" y2="99.04"/><line class="cls-6" x1="72.94" y1="87.73" x2="143.02" y2="87.73"/><line class="cls-3" x1="110.31" y1="99.04" x2="110.31" y2="110.1"/><line class="cls-3" x1="137.28" y1="99.04" x2="137.28" y2="110.1"/><line class="cls-3" x1="83.65" y1="99.04" x2="83.65" y2="109.94"/><line class="cls-4" x1="96.88" y1="99.04" x2="96.88" y2="88.14"/><line class="cls-4" x1="123.41" y1="99.04" x2="123.41" y2="88.14"/><line class="cls-1" x1="66.37" y1="154.85" x2="150.82" y2="154.85"/><line class="cls-2" x1="71.95" y1="143.78" x2="144.46" y2="143.78"/><line class="cls-3" x1="80.39" y1="132.47" x2="135.57" y2="132.47"/><line class="cls-3" x1="110.31" y1="143.78" x2="110.31" y2="154.85"/><line class="cls-3" x1="137.28" y1="143.78" x2="137.28" y2="154.85"/><line class="cls-3" x1="83.65" y1="143.78" x2="83.65" y2="154.68"/><line class="cls-4" x1="96.88" y1="143.78" x2="96.88" y2="132.89"/><line class="cls-4" x1="123.41" y1="143.78" x2="123.41" y2="132.89"/><line class="cls-1" x1="69.18" y1="177.22" x2="150.82" y2="177.22"/><line class="cls-2" x1="71.95" y1="166.16" x2="144.46" y2="166.16"/><line class="cls-3" x1="80.39" y1="154.85" x2="135.57" y2="154.85"/><line class="cls-3" x1="110.31" y1="166.16" x2="110.31" y2="177.22"/><line class="cls-3" x1="137.28" y1="166.16" x2="137.28" y2="177.22"/><line class="cls-3" x1="83.65" y1="166.16" x2="83.65" y2="177.05"/><line class="cls-4" x1="96.88" y1="166.16" x2="96.88" y2="155.26"/><line class="cls-4" x1="123.41" y1="166.16" x2="123.41" y2="155.26"/><path class="cls-7" d="M91.63,76.53l-7,3.35c4.06,11.24,18.51,97.34,18.51,97.34l77.29-.07C180.27,177.08,91.63,76.53,91.63,76.53Z"/><path class="cls-8" d="M91.63,76.53l-7,3.35c4.06,11.24,18.51,97.34,18.51,97.34l77.29-.07C180.27,177.08,91.63,76.53,91.63,76.53Z"/><path class="cls-9" d="M91.67,76.34c.75,1-.13,2.8-2,3.92s-4,1.19-4.7.14c-.12-.17-1.47-2.47-1.51-2.67-.2-1,2-.31,3.49-1.25s2.37-3,3.34-2.54A21.56,21.56,0,0,1,91.67,76.34Z"/><path class="cls-10" d="M91.67,76.34c.75,1-.13,2.8-2,3.92s-4,1.19-4.7.14c-.12-.17-1.47-2.47-1.51-2.67-.2-1,2-.31,3.49-1.25s2.37-3,3.34-2.54A21.56,21.56,0,0,1,91.67,76.34Z"/><path class="cls-9" d="M90.26,73.9C91,75,90,76.7,88.16,77.76s-4,1.07-4.7,0,.22-2.79,2.1-3.86S89.54,72.84,90.26,73.9Z"/><path class="cls-11" d="M90.26,73.9C91,75,90,76.7,88.16,77.76s-4,1.07-4.7,0,.22-2.79,2.1-3.86S89.54,72.84,90.26,73.9Z"/><path class="cls-9" d="M85.45,76.49c.51.37,3.51-.73,2.37-2.32l-6.9-12.06a1.71,1.71,0,0,0-3,1.44l0,.06Z"/><path class="cls-12" d="M85.45,76.49c.51.37,3.51-.73,2.37-2.32l-6.9-12.06a1.71,1.71,0,0,0-3,1.44l0,.06Z"/><path class="cls-13" d="M80.42,61.74c.29.4,0,1.07-.75,1.51s-1.51.47-1.8.07,0-1.07.74-1.51S80.13,61.34,80.42,61.74Z"/><line class="cls-14" x1="93.68" y1="74.21" x2="95.54" y2="73.23"/><line class="cls-14" x1="92.31" y1="71.51" x2="94.64" y2="69.1"/><line class="cls-14" x1="89.93" y1="69.87" x2="90.44" y2="67.52"/><path class="cls-15" d="M130.86,177.17h-8.5a2.38,2.38,0,0,1-.34-1.77,2.23,2.23,0,0,1,2-1.8c1.18-.11,2.35.59,3,.61,1.44.06,3.86-.35,4.53.28C132.52,175.32,132.49,177.17,130.86,177.17Z"/><path class="cls-16" d="M130.86,177.17h-8.5a2.38,2.38,0,0,1-.34-1.77,2.23,2.23,0,0,1,2-1.8c1.18-.11,2.35.59,3,.61,1.44.06,3.86-.35,4.53.28C132.52,175.32,132.49,177.17,130.86,177.17Z"/><path class="cls-15" d="M120.09,161.67c.62.29,1.13,3.36.84,3.68l0,.14c-.25,1.86-1.79,2.06-2.23,1C117.73,163.81,121.2,162.49,120.09,161.67Z"/><path class="cls-17" d="M120.09,161.67c.62.29,1.13,3.36.84,3.68l0,.14c-.25,1.86-1.79,2.06-2.23,1C117.73,163.81,121.2,162.49,120.09,161.67Z"/><path class="cls-15" d="M132.52,159.79c4.09.59,10.22,2.42,11.07,9.5.35,2.82-.27,6.56-3.81,7.93-.06,0-8.39,0-8.76,0-3.26,0-6.3-2.41-8.33-5.3-2.69-3.82-2.61-8-2.61-11.3,0-2.7-4.57-6.77-4.31-9.1a1.92,1.92,0,0,1,1.7-1.83c1.34-.26,5.23.59,6.82.76.68.08,1.14.17,1.15.14,1.07-4.09,7.78-2.29,4.64,2.37C128,156,127.32,159,132.52,159.79Z"/><path class="cls-18" d="M132.52,159.79c4.09.59,10.22,2.42,11.07,9.5.35,2.82-.27,6.56-3.81,7.93-.06,0-8.39,0-8.76,0-3.26,0-6.3-2.41-8.33-5.3-2.69-3.82-2.61-8-2.61-11.3,0-2.7-4.57-6.77-4.31-9.1a1.92,1.92,0,0,1,1.7-1.83c1.34-.26,5.23.59,6.82.76.68.08,1.14.17,1.15.14,1.07-4.09,7.78-2.29,4.64,2.37C128,156,127.32,159,132.52,159.79Z"/><path class="cls-19" d="M119.8,155.05l-1.61-.87-.87.83a4.31,4.31,0,0,0,.32,1.76l1.7,0A6.81,6.81,0,0,0,119.8,155.05Z"/><path class="cls-20" d="M119.8,155.05l-1.61-.87-.87.83a4.31,4.31,0,0,0,.32,1.76l1.7,0A6.81,6.81,0,0,0,119.8,155.05Z"/><path class="cls-21" d="M116.74,150.15c-.26-.76,3.6-.87,3.27,0C119.44,151.75,117.78,153.23,116.74,150.15Z"/><path class="cls-22" d="M116.74,150.15c-.26-.76,3.6-.87,3.27,0C119.44,151.75,117.78,153.23,116.74,150.15Z"/><path class="cls-23" d="M124.28,151.57a.6.6,0,1,1-.6.6.6.6,0,0,1,.6-.6"/><path class="cls-16" d="M131.23,177.17a2.38,2.38,0,0,1-.34-1.77,2.23,2.23,0,0,1,2-1.8c1.18-.11,2.35.59,3,.61"/><path class="cls-24" d="M143.7,170.79c2.25-1.11,3.69-4.23,1.9-8.41-1-2.36-4.75-9.78-.8-13.08"/><path class="cls-18" d="M128.52,150a1.48,1.48,0,0,0-1.32.61,3.86,3.86,0,0,0-.25,2.21"/><path class="cls-17" d="M124.41,162.61c-2.44.68-2.35,1.84-2,4,.38.93,1.85.77,1.86-.74a1.41,1.41,0,0,1,.41-.8"/><path class="cls-17" d="M121.72,154.89l-.07,0c-1.27.91-2.51,0-3.41-1a2.05,2.05,0,0,1-.87.84"/><path class="cls-15" d="M121.37,150a2.15,2.15,0,0,1,.31-1.13c.87-1.38,3-.81,3.52.61a3.77,3.77,0,0,1,.16,1.19Z"/><path class="cls-25" d="M121.37,150a2.15,2.15,0,0,1,.31-1.13c.87-1.38,3-.81,3.52.61a3.77,3.77,0,0,1,.16,1.19Z"/><path class="cls-26" d="M45.65,83.7l-2,11.73c-2.27,3.64-8.5,1.92-9-3.6-.16-1.81-1.14-8.29-1.94-13.58-.21-1.31-1.83-10,.45-10.67,1.77-.53,1.07,2.66,1,3.77-.11,1.61,0-4.78,1.9-4.9,1.55-.09,1.2,2.26.91,3.6-.11.52-.17,1-.17.93,0-.35.32-1.37.55-2.65.6-3.27,3.09-2.12,2.77-.77-.48,2-.92,4.74-.58,4.92.57.3.63.09,1.33-1.49s2.31-1.16,1.91,1c-.32,1.74-1.7,3.9-1.58,5.16l1.05,3.57Z"/><path class="cls-25" d="M45.65,83.7l-2,11.73c-2.27,3.64-8.5,1.92-9-3.6-.16-1.81-1.14-8.29-1.94-13.58-.21-1.31-1.83-10,.45-10.67,1.77-.53,1.07,2.66,1,3.77-.11,1.61,0-4.78,1.9-4.9,1.55-.09,1.2,2.26.91,3.6-.11.52-.17,1-.17.93,0-.35.32-1.37.55-2.65.6-3.27,3.09-2.12,2.77-.77-.48,2-.92,4.74-.58,4.92.57.3.63.09,1.33-1.49s2.31-1.16,1.91,1c-.32,1.74-1.7,3.9-1.58,5.16l1.05,3.57Z"/><path class="cls-26" d="M54.48,73c.29-1.77-.53-3.22-2-3.51a.91.91,0,0,0-1,.3L50.62,76c-.16,1.5,3,1.79,3.52.56Z"/><path class="cls-27" d="M54.48,73c.29-1.77-.53-3.22-2-3.51a.91.91,0,0,0-1,.3L50.62,76c-.16,1.5,3,1.79,3.52.56Z"/><path class="cls-28" d="M63.1,103.53c.47,1.06,13.61,52.82,14.8,56.27H49.58L27.9,153.52c.15-.52,5-12.47,8.36-19.19a6.39,6.39,0,0,0,.29-4C35,120.05,35.17,111,41.92,103.53Z"/><path class="cls-29" d="M50.21,118.23l4.87,2.69,5-2.13c-.06-.41,0-8.79.17-10.18H50.43Z"/><path class="cls-30" d="M35.74,120.24l1.25,1,5-2.13c.06-.41,2.35-8.79,2.93-10.18h-6.6"/><path class="cls-26" d="M58.69,65.27a4.37,4.37,0,0,0-2.57-2.38c-2.63-.47-5.13.32-5.74,3.52a6.21,6.21,0,0,0,3.13,5.91c3.19,1.52,6-.68,6-3.81,0-.25.25-.62.23-.88s-.36-.38-.37-.46A4.94,4.94,0,0,0,58.69,65.27Z"/><path class="cls-31" d="M58.69,65.27a4.37,4.37,0,0,0-2.57-2.38c-2.63-.47-5.13.32-5.74,3.52a6.21,6.21,0,0,0,3.13,5.91c3.19,1.52,6-.68,6-3.81,0-.25.25-.62.23-.88s-.36-.38-.37-.46A4.94,4.94,0,0,0,58.69,65.27Z"/><path class="cls-28" d="M45.45,71.57c1-6.31,1.85-10.16,7.16-10.19,4.16,0,5.94,3.41,5.66,3.39h-.54l-1.08,6.81Z"/><path class="cls-32" d="M45.45,71.57c1-6.31,1.85-10.16,7.16-10.19,4.16,0,5.94,3.41,5.66,3.39h-.54l-1.08,6.81Z"/><path class="cls-19" d="M62.65,103.91c-6.84,0-13.58.19-20.42,0-.11,0,3.26-18.94,3.23-19s-4.73,0-4.73,0S43.25,77.18,45,75.2s4.57-1.93,5.78.09c-.31,2.62,3.17,1.82,3.29.88.27-2.17,3-2.9,4.79-1.64,1.57,1.11,3.08,4.07,4.15,5.76,1.32,2.1,2.69,4.19,2.9,4.63l-7.12,0Z"/><path class="cls-25" d="M62.65,103.91c-6.84,0-13.58.19-20.42,0-.11,0,3.26-18.94,3.23-19s-4.73,0-4.73,0S43.25,77.18,45,75.2s4.57-1.93,5.78.09c-.31,2.62,3.17,1.82,3.29.88.27-2.17,3-2.9,4.79-1.64,1.57,1.11,3.08,4.07,4.15,5.76,1.32,2.1,2.69,4.19,2.9,4.63l-7.12,0Z"/><path class="cls-26" d="M58.78,84.89l2.15,10.64c5.73,5.92,12.66,4,14.73-5,.83-3.61.83-12.15,1.19-12.38,2.24-1.42,4.14-5.49,2.1-7-.62-.46-.41.32-.43-.23-.1-2.41-2.07-1.85-2.11-2.15-.32-2.18-2.27-1.68-2.52-.73s0,3.92-2.11,4.42c-.38.09.49-2.8-1-3.18-1.93-.48-1.67,5.21-2,6.86-.59,3.54-1.33,9.68-1.48,11.1l-1.52-2.4Z"/><path class="cls-25" d="M58.78,84.89l2.15,10.64c5.73,5.92,12.66,4,14.73-5,.83-3.61.83-12.15,1.19-12.38,2.24-1.42,4.14-5.49,2.1-7-.62-.46-.41.32-.43-.23-.1-2.41-2.07-1.85-2.11-2.15-.32-2.18-2.27-1.68-2.52-.73s0,3.92-2.11,4.42c-.38.09.49-2.8-1-3.18-1.93-.48-1.67,5.21-2,6.86-.59,3.54-1.33,9.68-1.48,11.1l-1.52-2.4Z"/><line class="cls-25" x1="58.83" y1="85.06" x2="58.3" y2="82.81"/><line class="cls-25" x1="43.19" y1="97.92" x2="45.84" y2="82.64"/><line class="cls-25" x1="67.37" y1="87.24" x2="68.45" y2="89.01"/><path class="cls-33" d="M76.4,69a4.83,4.83,0,0,1-.63,3.2"/><path class="cls-34" d="M78.49,71.13a4.92,4.92,0,0,1-.6,3"/><path class="cls-35" d="M50.87,160.34l-2.59-34a12.71,12.71,0,0,1-2-1.71,8.52,8.52,0,0,1-.68-1"/><path class="cls-19" d="M19.53,168.9,28.17,153l21.5,6.68c-2.44,5.76,1.3,8.63,2.14,9.05s6.22,1.38,7.53,5.43a12.32,12.32,0,0,1,.13,3.06H46.09l-10.88-3.38L34,170.72l-1.61,2.18Z"/><path class="cls-36" d="M19.53,168.9,28.17,153l21.5,6.68c-2.44,5.76,1.3,8.63,2.14,9.05s6.22,1.38,7.53,5.43a12.32,12.32,0,0,1,.13,3.06H46.09l-10.88-3.38L34,170.72l-1.61,2.18Z"/><polyline class="cls-37" points="59.39 174.21 47.14 174.34 21.1 166.24"/><path class="cls-19" d="M33.39,156.76a2.23,2.23,0,0,0-2.76,1.54,2.3,2.3,0,0,0,1.45,2.86,2.22,2.22,0,0,0,2.75-1.55A2.27,2.27,0,0,0,33.39,156.76Z"/><path class="cls-38" d="M33.39,156.76a2.23,2.23,0,0,0-2.76,1.54,2.3,2.3,0,0,0,1.45,2.86,2.22,2.22,0,0,0,2.75-1.55A2.27,2.27,0,0,0,33.39,156.76Z"/><path class="cls-36" d="M52.5,169c-2-.67-5.42,2.84-5.54,5.3"/><path class="cls-39" d="M48.15,171c-3.21-2-4.9-7.7-3-12.67"/><path class="cls-19" d="M52.87,177.25l-1.49-17.84H72.8c.26,1.28.43,3,4.52,5.87,1.82,1.28,5.33,2.35,8,3.94a9.3,9.3,0,0,1,4.84,8H68.53l-2.67-2.64-.18,2.64Z"/><path class="cls-40" d="M52.87,177.25l-1.49-17.84H72.8c.26,1.28.43,3,4.52,5.87,1.82,1.28,5.33,2.35,8,3.94a9.3,9.3,0,0,1,4.84,8H68.54l-2.68-2.64-.18,2.64Z"/><line class="cls-41" x1="89.61" y1="174.15" x2="52.85" y2="174.15"/><path class="cls-19" d="M57.91,161.44a2.29,2.29,0,0,0-2.25,2.3A2.24,2.24,0,0,0,57.87,166a2.3,2.3,0,0,0,2.26-2.29A2.25,2.25,0,0,0,57.91,161.44Z"/><path class="cls-42" d="M57.91,161.44a2.29,2.29,0,0,0-2.25,2.3A2.24,2.24,0,0,0,57.87,166a2.3,2.3,0,0,0,2.26-2.29A2.25,2.25,0,0,0,57.91,161.44Z"/><path class="cls-40" d="M80.91,167.11c-2,0-3.14,6-2.53,7"/><path class="cls-40" d="M78.73,170c-4.17-.9-10.2-5-11.48-10.57"/><line class="cls-25" x1="40.73" y1="84.83" x2="39.4" y2="88.52"/><line class="cls-43" x1="28.26" y1="70.67" x2="26.23" y2="70.32"/><line class="cls-43" x1="28.72" y1="67.75" x2="25.82" y2="66.2"/><line class="cls-43" x1="30.44" y1="65.5" x2="29.26" y2="63.46"/></svg>