<svg id="Layer_1" data-name="Layer 1" xmlns="http://www.w3.org/2000/svg" viewBox="0 0 200 200"><defs><style>.cls-1{fill:#ffca05;}.cls-1,.cls-21,.cls-23,.cls-26,.cls-3,.cls-6,.cls-8{fill-rule:evenodd;}.cls-10,.cls-11,.cls-12,.cls-13,.cls-14,.cls-15,.cls-16,.cls-17,.cls-18,.cls-19,.cls-2,.cls-20,.cls-22,.cls-24,.cls-25,.cls-27,.cls-28,.cls-29,.cls-30,.cls-31,.cls-32,.cls-33,.cls-34,.cls-35,.cls-36,.cls-4,.cls-5,.cls-7,.cls-9{fill:none;stroke-linecap:round;stroke-linejoin:round;}.cls-12,.cls-13,.cls-14,.cls-15,.cls-2,.cls-20,.cls-22,.cls-24,.cls-25,.cls-27,.cls-28,.cls-29,.cls-30,.cls-31,.cls-32,.cls-33,.cls-34,.cls-35,.cls-36,.cls-4,.cls-5,.cls-7,.cls-9{stroke:#231f20;}.cls-11,.cls-2{stroke-width:0.57px;}.cls-3{fill:#f9d1e3;}.cls-17,.cls-4{stroke-width:0.57px;}.cls-5{stroke-width:0.57px;}.cls-6{fill:#231f20;}.cls-7{stroke-width:0.57px;}.cls-8{fill:#fff;}.cls-10,.cls-9{stroke-width:0.57px;}.cls-10,.cls-17{stroke:#000;}.cls-11,.cls-19{stroke:#ec1c24;}.cls-12{stroke-width:0.57px;}.cls-13{stroke-width:0.57px;}.cls-14{stroke-width:0.57px;}.cls-15{stroke-width:0.57px;}.cls-16{stroke:#fff;stroke-width:0.57px;}.cls-18{stroke:#0094d9;stroke-width:3.79px;}.cls-19{stroke-width:3.79px;}.cls-20{stroke-width:0.57px;}.cls-21{fill:#ec1c24;}.cls-22{stroke-width:0.57px;}.cls-23{fill:#ff98cb;}.cls-24{stroke-width:0.57px;}.cls-25{stroke-width:0.57px;}.cls-26{fill:#0094d9;}.cls-27{stroke-width:0.57px;}.cls-28{stroke-width:0.57px;}.cls-29{stroke-width:0.57px;}.cls-30{stroke-width:0.57px;}.cls-31{stroke-width:0.57px;}.cls-32{stroke-width:0.57px;}.cls-33{stroke-width:0.57px;}.cls-34{stroke-width:0.57px;}.cls-35{stroke-width:0.57px;}.cls-36{stroke-width:0.57px;}</style></defs><polygon class="cls-1" points="56.48 63.25 59.31 75.03 68.52 67.16 63.89 78.35 75.96 77.4 65.64 83.73 75.96 90.06 63.89 89.11 68.52 100.3 59.31 92.44 56.48 104.21 53.65 92.44 44.45 100.3 49.08 89.11 37.01 90.06 47.33 83.73 37.01 77.4 49.08 78.35 44.45 67.16 53.65 75.03 56.48 63.25"/><polygon class="cls-2" points="56.48 63.25 59.31 75.03 68.52 67.16 63.89 78.35 75.96 77.4 65.64 83.73 75.96 90.06 63.89 89.11 68.52 100.3 59.31 92.44 56.48 104.21 53.65 92.44 44.45 100.3 49.08 89.11 37.01 90.06 47.33 83.73 37.01 77.4 49.08 78.35 44.45 67.16 53.65 75.03 56.48 63.25"/><polygon class="cls-3" points="100.5 70.47 103.68 70.47 104.14 75.98 100.05 75.98 100.5 70.47"/><polygon class="cls-4" points="100.5 70.47 103.68 70.47 104.14 75.98 100.05 75.98 100.5 70.47"/><path class="cls-3" d="M102.08,61.83h.09a4.82,4.82,0,0,1,4.84,4,5.84,5.84,0,0,1-2.91,5.74,4.62,4.62,0,0,1-1.91.47h-.13a4.62,4.62,0,0,1-1.91-.47,5.84,5.84,0,0,1-2.91-5.74,4.82,4.82,0,0,1,4.84-4Z"/><path class="cls-4" d="M102.08,61.83h.09a4.82,4.82,0,0,1,4.84,4,5.84,5.84,0,0,1-2.91,5.74,4.62,4.62,0,0,1-1.91.47h-.13a4.62,4.62,0,0,1-1.91-.47,5.84,5.84,0,0,1-2.91-5.74,4.82,4.82,0,0,1,4.84-4Z"/><path class="cls-5" d="M100.93,64.56c.37-.46.76-.44,1.14,0"/><path class="cls-5" d="M103.41,64.57c-.37-.46-.76-.45-1.14,0"/><path class="cls-6" d="M109.63,70.45c-1-6.06-4.27-9-7.44-9.13s-6.93,2.48-7.74,9.13h3.63l.65-7.13a2.75,2.75,0,0,1,.22-.26c.45-.33,4.66-.47,6.19,0a1.71,1.71,0,0,1,.21.26l.66,7.13Z"/><path class="cls-7" d="M109.63,70.45c-1-6.06-4.27-9-7.44-9.13s-6.93,2.48-7.74,9.13h3.63l.65-7.13a2.75,2.75,0,0,1,.22-.26c.45-.33,4.66-.47,6.19,0a1.71,1.71,0,0,1,.21.26l.66,7.13Z"/><path class="cls-6" d="M91.74,103.28l2.89,0H99l.18,0,17.15.13a13.32,13.32,0,0,1,1.19,1.5,47,47,0,0,1,5.6,10.48c6.41,15.57,14,42.48,14.89,44.33h-28.7c-.39-1.53-3.67-12.25-7-23.22-3.28,11-6.56,21.69-7,23.22H66.65c.89-1.85,8.48-28.76,14.89-44.33,2.31-5.61,4.63-10.1,6.79-12.14h3.3l.11,0"/><path class="cls-8" d="M89.57,177.36,95,159.77H71.46C69.65,163.87,66.64,165,62,167c-7.75,3.51-10.12,5.86-10.42,10.33H73l3.41-2.42.38,2.42Z"/><path class="cls-9" d="M89.57,177.36,95,159.77H71.46C69.65,163.87,66.64,165,62,167c-7.75,3.51-10.12,5.86-10.42,10.33H73l3.41-2.42.38,2.42Z"/><line class="cls-10" x1="52.89" y1="174.5" x2="90.31" y2="174.5"/><path class="cls-8" d="M85.87,161.79a2.2,2.2,0,0,1,2.15,2.3,2.3,2.3,0,0,1-2.24,2.29,2.2,2.2,0,0,1-2.16-2.29A2.31,2.31,0,0,1,85.87,161.79Z"/><path class="cls-11" d="M85.87,161.79a2.2,2.2,0,0,1,2.15,2.3,2.3,2.3,0,0,1-2.24,2.29,2.2,2.2,0,0,1-2.16-2.29A2.31,2.31,0,0,1,85.87,161.79Z"/><path class="cls-9" d="M61.84,167.19c2.25.61,4.56,6.28,3.69,7.31"/><path class="cls-9" d="M64.58,170.14c4.62-.9,10.47-4.51,12.47-10.37"/><path class="cls-8" d="M114.94,177.35l-5.4-17.59h23.52c1.81,4.1,4.82,5.18,9.41,7.26,7.76,3.51,10.12,5.87,10.42,10.34H131.51l-3.41-2.42-.39,2.41Z"/><path class="cls-9" d="M114.94,177.35l-5.4-17.59h23.52c1.81,4.1,4.82,5.18,9.41,7.26,7.76,3.51,10.12,5.87,10.42,10.34H131.51l-3.41-2.42-.39,2.41Z"/><line class="cls-10" x1="151.63" y1="174.5" x2="114.21" y2="174.5"/><path class="cls-8" d="M118.67,161.79a2.2,2.2,0,0,0-2.16,2.3,2.31,2.31,0,0,0,2.25,2.29,2.2,2.2,0,0,0,2.15-2.29A2.31,2.31,0,0,0,118.67,161.79Z"/><path class="cls-11" d="M118.67,161.79a2.2,2.2,0,0,0-2.16,2.3,2.31,2.31,0,0,0,2.25,2.29,2.2,2.2,0,0,0,2.15-2.29A2.31,2.31,0,0,0,118.67,161.79Z"/><path class="cls-9" d="M142.68,167.19c-2.26.61-4.57,6.28-3.7,7.31"/><path class="cls-9" d="M139.93,170.13c-4.61-.9-10.46-4.5-12.46-10.37"/><path class="cls-3" d="M112.08,67.45l6.49,4.87s6.49-9.36,10.57-14.53a46.52,46.52,0,0,0,5.73-8.19c2.08-4-.26-4.25-.13-4.91.41-2-2.05-2.57-2.14-2.63,1.21-1.53,2.89-4,1.22-4.74-.85-.38-2.46,1.25-4.4,3.75-2.37,3-5.1,7.22-5.94,8.61C120.58,54.46,115.24,63.24,112.08,67.45Z"/><path class="cls-4" d="M112.08,67.45l6.49,4.87s6.49-9.36,10.57-14.53a46.52,46.52,0,0,0,5.73-8.19c2.08-4-.26-4.25-.13-4.91.41-2-2.05-2.57-2.14-2.63,1.21-1.53,2.89-4,1.22-4.74-.85-.38-2.46,1.25-4.4,3.75-2.37,3-5.1,7.22-5.94,8.61C120.58,54.46,115.24,63.24,112.08,67.45Z"/><path class="cls-12" d="M131.36,46.32a1.61,1.61,0,0,0,.62,1.06c1.37.74,2.56-1.72,2.77-2.69"/><path class="cls-12" d="M133.12,47.32c0,2.75,1.72,2.21,2.08,1.48"/><path class="cls-13" d="M127.53,45.23c.84-.81,2.25-1.71,3.49-1.24a1.19,1.19,0,0,1,.11,2.25,5.18,5.18,0,0,0-2,1.37"/><line class="cls-12" x1="132.65" y1="42.01" x2="131.78" y2="43.07"/><path class="cls-3" d="M92,67.45l-6.48,4.87S79,63,75,57.79a46,46,0,0,1-5.73-8.19c-2.08-4,.26-4.25.12-4.91-.41-2,2.06-2.57,2.15-2.63-1.21-1.53-2.9-4-1.23-4.74.86-.38,2.47,1.25,4.41,3.75,2.37,3,5.1,7.22,5.94,8.61C83.53,54.46,88.87,63.24,92,67.45Z"/><path class="cls-4" d="M92,67.45l-6.48,4.87S79,63,75,57.79a46,46,0,0,1-5.73-8.19c-2.08-4,.26-4.25.12-4.91-.41-2,2.06-2.57,2.15-2.63-1.21-1.53-2.9-4-1.23-4.74.86-.38,2.47,1.25,4.41,3.75,2.37,3,5.1,7.22,5.94,8.61C83.53,54.46,88.87,63.24,92,67.45Z"/><path class="cls-12" d="M72.75,46.32a1.59,1.59,0,0,1-.62,1.06c-1.37.74-2.55-1.72-2.76-2.69"/><path class="cls-12" d="M71,47.32c0,2.74-1.72,2.21-2.08,1.48"/><path class="cls-13" d="M76.58,45.23c-.84-.81-2.25-1.7-3.49-1.24A1.2,1.2,0,0,0,73,46.25a5.07,5.07,0,0,1,2,1.37"/><line class="cls-12" x1="71.46" y1="42" x2="72.33" y2="43.07"/><path class="cls-14" d="M158.63,124.81c-3,6.29-4.65,14.57,3.45,16.53,4.36,1.06,4.22-3.65.81-3.42-5.14.33-4.94,8.39-2.87,11.35"/><path class="cls-8" d="M88.28,103.3c9.28,0,18.39,0,27.67,0l-3.24-19.58,7.22-10.32-7.72-6.11-2.94,4.51c-1.07,1.33-.82,1.16-3.44,1.25a2,2,0,0,0-2.1,2.21c0,.26-3.32.26-3.3,0a2,2,0,0,0-2.1-2.21c-2.62-.09-2.38.08-3.44-1.25L92,67.29,84.23,73.4l7.21,10.32Z"/><path class="cls-4" d="M88.28,103.3c9.28,0,18.39,0,27.67,0l-3.24-19.58,7.22-10.32-7.72-6.11-2.94,4.51c-1.07,1.33-.82,1.16-3.44,1.25a2,2,0,0,0-2.1,2.21c0,.26-3.32.26-3.3,0a2,2,0,0,0-2.1-2.21c-2.62-.09-2.38.08-3.44-1.25L92,67.29,84.23,73.4l7.21,10.32Z"/><path class="cls-8" d="M104.1,68.32a1.1,1.1,0,0,0,.44-1.25,1,1,0,0,0-1.21-.58,3.66,3.66,0,0,0-.5.16,1.42,1.42,0,0,1-1.33,0,3,3,0,0,0-.55-.18,1,1,0,0,0-1.21.58,1.1,1.1,0,0,0,.44,1.25A3.54,3.54,0,0,0,104.1,68.32Z"/><path class="cls-15" d="M104.1,68.32a1.1,1.1,0,0,0,.44-1.25,1,1,0,0,0-1.21-.58,3.66,3.66,0,0,0-.5.16,1.42,1.42,0,0,1-1.33,0,3,3,0,0,0-.55-.18,1,1,0,0,0-1.21.58,1.1,1.1,0,0,0,.44,1.25A3.54,3.54,0,0,0,104.1,68.32Z"/><line class="cls-16" x1="102.29" y1="138.06" x2="102.51" y2="123.75"/><path class="cls-17" d="M39.84,134.16c0,13-4.58,13.39-5.68,11.61-.74-1.19.34-3.6,4.42-3,2,.28,3.42,2.38,3.73,4.9.49,4.06-2,8.87-3.63,6.89-1.09-1.32,1.17-3.21,4.21-3.16,2.62.05,4.23,1.13,5.56,3.61"/><path class="cls-18" d="M166.06,96.33c-9,1.3-11.75,10.21-10.24,14,1.9,4.85,9,.35,5.05-4.15-1.74-2-6.19-2.26-16.12,4.79"/><path class="cls-19" d="M92.17,54.26c7-9-8.79-10.53,1-13.51,6.61-2-2.19-5.44,7-8"/><polygon class="cls-6" points="150.32 55.45 151.49 63.14 155.88 56.72 153.59 64.15 160.33 60.27 155.04 65.97 162.8 65.4 155.56 68.25 162.8 71.09 155.04 70.52 160.33 76.22 153.59 72.34 155.88 79.77 151.49 73.35 150.32 81.04 149.16 73.35 144.77 79.77 147.06 72.34 140.32 76.22 145.6 70.52 137.85 71.09 145.08 68.25 137.85 65.4 145.6 65.97 140.32 60.27 147.06 64.15 144.77 56.72 149.16 63.14 150.32 55.45"/><polygon class="cls-2" points="150.32 55.45 151.49 63.14 155.88 56.72 153.59 64.15 160.33 60.27 155.04 65.97 162.8 65.4 155.56 68.25 162.8 71.09 155.04 70.52 160.33 76.22 153.59 72.34 155.88 79.77 151.49 73.35 150.32 81.04 149.16 73.35 144.77 79.77 147.06 72.34 140.32 76.22 145.6 70.52 137.85 71.09 145.08 68.25 137.85 65.4 145.6 65.97 140.32 60.27 147.06 64.15 144.77 56.72 149.16 63.14 150.32 55.45"/><path class="cls-6" d="M59.43,53.88,56,52.77c-1.34,4-4.62,1.59-5.94,5.59l4,1.36C54.87,57,58,58.19,59.43,53.88Z"/><path class="cls-20" d="M59.43,53.88,56,52.77c-1.34,4-4.62,1.59-5.94,5.59l4,1.36C54.87,57,58,58.19,59.43,53.88Z"/><path class="cls-21" d="M96.1,90l.39-3.58c-4.23-.49-2.5-4.2-6.68-4.69l-.52,4.2C92.09,86.15,91.58,89.45,96.1,90Z"/><path class="cls-22" d="M96.1,90l.39-3.58c-4.23-.49-2.5-4.2-6.68-4.69l-.52,4.2C92.09,86.15,91.58,89.45,96.1,90Z"/><path class="cls-23" d="M62.47,139l-3.13-1.78c-2.12,3.69-4.84.63-6.94,4.28l3.65,2.14C57.38,141.12,60.21,142.9,62.47,139Z"/><path class="cls-24" d="M62.47,139l-3.13-1.78c-2.12,3.69-4.84.63-6.94,4.28l3.65,2.14C57.38,141.12,60.21,142.9,62.47,139Z"/><path class="cls-23" d="M128.81,87.91l3.56.56c.69-4.21,4.31-2.3,5-6.45l-4.17-.72C132.82,84.09,129.54,83.43,128.81,87.91Z"/><path class="cls-25" d="M128.81,87.91l3.56.56c.69-4.21,4.31-2.3,5-6.45l-4.17-.72C132.82,84.09,129.54,83.43,128.81,87.91Z"/><path class="cls-26" d="M111.45,145.32l-3.2-1.68c-2,3.76-4.82.79-6.79,4.51l3.71,2C106.43,147.64,109.31,149.33,111.45,145.32Z"/><path class="cls-27" d="M111.45,145.32l-3.2-1.68c-2,3.76-4.82.79-6.79,4.51l3.71,2C106.43,147.64,109.31,149.33,111.45,145.32Z"/><path class="cls-26" d="M123.68,59.35l-3.56.56c-.69-4.2-4.31-2.3-5-6.45l4.17-.72C119.67,55.53,123,54.87,123.68,59.35Z"/><path class="cls-25" d="M123.68,59.35l-3.56.56c-.69-4.2-4.31-2.3-5-6.45l4.17-.72C119.67,55.53,123,54.87,123.68,59.35Z"/><path class="cls-1" d="M119.67,119.64l3.09-1.86c2.22,3.63,4.86.49,7,4.08l-3.58,2.24C124.82,121.66,122.05,123.51,119.67,119.64Z"/><path class="cls-28" d="M119.67,119.64l3.09-1.86c2.22,3.63,4.86.49,7,4.08l-3.58,2.24C124.82,121.66,122.05,123.51,119.67,119.64Z"/><path class="cls-26" d="M65,117.3l2.15-2.61c1.7,1.37,3.39.2,4.16-1l2.53,2.08c-1.66,2.44-4.5,4.64-8.5,1.84C65.15,117.49,65.29,117.51,65,117.3Z"/><path class="cls-29" d="M65,117.3l2.15-2.61c1.7,1.37,3.39.2,4.16-1l2.53,2.08c-1.66,2.44-4.5,4.64-8.5,1.84C65.15,117.49,65.29,117.51,65,117.3Z"/><path class="cls-6" d="M88.56,168.91l2.26-2.51c1.64,1.45,3.38.36,4.21-.76l2.43,2.2c-1.77,2.36-4.71,4.43-8.57,1.45C88.66,169.11,88.81,169.14,88.56,168.91Z"/><path class="cls-30" d="M88.56,168.91l2.26-2.51c1.64,1.45,3.38.36,4.21-.76l2.43,2.2c-1.77,2.36-4.71,4.43-8.57,1.45C88.66,169.11,88.81,169.14,88.56,168.91Z"/><path class="cls-6" d="M117.88,90.55l-.66,3.32c-2.14-.4-3.08,1.43-3.21,2.81l-3.22-.63c.31-2.94,1.77-6.23,6.61-5.65C117.69,90.43,117.55,90.48,117.88,90.55Z"/><path class="cls-31" d="M117.88,90.55l-.66,3.32c-2.14-.4-3.08,1.43-3.21,2.81l-3.22-.63c.31-2.94,1.77-6.23,6.61-5.65C117.69,90.43,117.55,90.48,117.88,90.55Z"/><path class="cls-6" d="M148.4,156.53l3.37.28c-.16,2.18,1.76,2.9,3.15,2.88l-.26,3.27c-3,0-6.38-1.06-6.36-5.94C148.3,156.74,148.37,156.87,148.4,156.53Z"/><path class="cls-32" d="M148.4,156.53l3.37.28c-.16,2.18,1.76,2.9,3.15,2.88l-.26,3.27c-3,0-6.38-1.06-6.36-5.94C148.3,156.74,148.37,156.87,148.4,156.53Z"/><path class="cls-6" d="M61.64,106.19a.57.57,0,0,1,0,1.13.57.57,0,0,1,0-1.13"/><path class="cls-6" d="M101.67,156.23a.57.57,0,1,1-.53.57.55.55,0,0,1,.53-.57"/><path class="cls-6" d="M130.45,113.07a.57.57,0,0,1,0,1.13.57.57,0,0,1,0-1.13"/><path class="cls-6" d="M146.77,91.53a.57.57,0,1,1-.54.57.55.55,0,0,1,.54-.57"/><path class="cls-6" d="M47.86,130.87a.56.56,0,0,1,.53.57.53.53,0,1,1-1.06,0,.56.56,0,0,1,.53-.57"/><path class="cls-6" d="M164.72,155a.56.56,0,0,1,.53.57.53.53,0,1,1-1.06,0,.56.56,0,0,1,.53-.57"/><path class="cls-6" d="M148.09,146.14a.57.57,0,1,1-.54.56.55.55,0,0,1,.54-.56"/><path class="cls-6" d="M83.57,97.94a.55.55,0,0,1,.53.57.54.54,0,1,1-.53-.57"/><path class="cls-6" d="M57.38,42.39a.56.56,0,0,1,.53.57.53.53,0,1,1-1.06,0,.56.56,0,0,1,.53-.57"/><path class="cls-6" d="M98.67,57.32a.56.56,0,0,1,.53.57.54.54,0,1,1-1.07,0,.56.56,0,0,1,.54-.57"/><path class="cls-6" d="M117.24,44.23a.55.55,0,0,1,.53.57.54.54,0,1,1-.53-.57"/><line class="cls-4" x1="42" y1="112.38" x2="42" y2="123.11"/><line class="cls-33" x1="38.2" y1="113.96" x2="45.78" y2="121.54"/><line class="cls-4" x1="36.64" y1="117.74" x2="47.36" y2="117.74"/><line class="cls-33" x1="38.2" y1="121.54" x2="45.78" y2="113.96"/><line class="cls-34" x1="141.6" y1="125.06" x2="141.6" y2="131.92"/><line class="cls-35" x1="139.16" y1="126.07" x2="144.01" y2="130.93"/><line class="cls-34" x1="138.17" y1="128.49" x2="145.04" y2="128.49"/><line class="cls-35" x1="139.16" y1="130.93" x2="144.01" y2="126.07"/><path class="cls-36" d="M129.28,100.68a1.27,1.27,0,0,0-.35,1.83,1.49,1.49,0,0,0,2,.12,2.53,2.53,0,0,0,.71-3.66,3,3,0,0,0-4-.24c-1.94,1.42-2.41,3.87-1.07,5.48a4.43,4.43,0,0,0,5.95.36c2.58-1.88,3.21-5.16,1.42-7.31s-5.35-2.36-7.93-.48"/></svg>