<svg xmlns="http://www.w3.org/2000/svg" viewBox="0 0 365.98 346.04"><defs><style>.cls-1{fill:#edeff4;}.cls-2{fill:#f3f5ff;}.cls-3{fill:#0c0c0c;}</style></defs><title>资源 17</title><g id="图层_2" data-name="图层 2"><g id="图层_1-2" data-name="图层 1"><path class="cls-1" d="M340,154.58c-7.53-13.59-16.71-23.71-27.1-31a66.67,66.67,0,0,0,11.48,2.63c24,3.27,12-22.89,12-22.89,33.78-9.08,10.17-36.63,10.17-36.63,18.16-19.55-9.08-33.48-9.08-33.48C345.81,7.46,306.58.56,306.58.56s-22.52-5.81-10.17,20-12,90.53-12,90.53c1.57-.94,3.89.09,7.17,2-93-30-244.74,96.77-244.74,96.77s-38.09,88.6-15.21,118,45.77-20.71,45.77-20.71,38.21-30.68,72.5,11.36,49.55,31,58.27,0c6.76-24,57.4-57.23,90-67-7.57,15.47,13.56,21.88,13.56,21.88S411.92,284.26,340,154.58Z"/><path class="cls-2" d="M225.58,148.48c0-19.57-13.07-36.35-31.69-43.52-8.72-14.89-25.94-25-45.76-25a57.22,57.22,0,0,0-6.32.36,55.53,55.53,0,0,0-24.93-5.82c-18.59,0-34.89,8.92-44,22.32C49.3,101.25,31.6,120.26,31.6,143c0,13.74,6.45,26.11,16.73,34.74a43.56,43.56,0,0,0-3.88,17.94c0,26.08,23.21,47.22,51.84,47.22a55.8,55.8,0,0,0,23.21-5,54.57,54.57,0,0,0,34.17,11.73c27.18,0,49.46-19,51.65-43.3,12.31-8.63,20.26-22.18,20.26-37.43a43.2,43.2,0,0,0-1.24-10.22A43.28,43.28,0,0,0,225.58,148.48Z"/><path class="cls-3" d="M51.34,98.42S-25.6,167.72,8.9,196.34s45.72,9.1,49,0C62.57,183.64,90.51,89.48,51.34,98.42Z"/><circle class="cls-3" cx="115.6" cy="139.78" r="9.35"/><circle class="cls-3" cx="161.91" cy="154.58" r="9.35"/><ellipse class="cls-3" cx="132.4" cy="170.29" rx="10.99" ry="4.36" transform="translate(-57.88 271.88) rotate(-80.23)"/><path class="cls-3" d="M227.9,152.42s22.1,88.15-14.65,101.09-35.74-8.2-33.95-17.37C181.81,223.33,204.8,130.69,227.9,152.42Z"/></g></g></svg>