<svg id="Layer_1" data-name="Layer 1" xmlns="http://www.w3.org/2000/svg" viewBox="0 0 200 200"><defs><style>.cls-1{fill:#ffca05;}.cls-1,.cls-15,.cls-20,.cls-29,.cls-3,.cls-32,.cls-5,.cls-7{fill-rule:evenodd;}.cls-10,.cls-11,.cls-12,.cls-13,.cls-14,.cls-16,.cls-17,.cls-18,.cls-19,.cls-2,.cls-21,.cls-22,.cls-23,.cls-24,.cls-25,.cls-26,.cls-27,.cls-28,.cls-30,.cls-31,.cls-33,.cls-4,.cls-6,.cls-8{fill:none;stroke-linecap:round;stroke-linejoin:round;}.cls-10,.cls-11,.cls-12,.cls-17,.cls-18,.cls-19,.cls-2,.cls-21,.cls-22,.cls-23,.cls-24,.cls-26,.cls-27,.cls-28,.cls-30,.cls-33,.cls-4,.cls-6,.cls-8{stroke:#231f20;}.cls-2{stroke-width:0.57px;}.cls-3{fill:#fff;}.cls-4{stroke-width:0.57px;}.cls-5{fill:#339866;}.cls-6{stroke-width:0.57px;}.cls-7{fill:#98cb98;}.cls-8{stroke-width:0.57px;}.cls-32,.cls-9{fill:#063;}.cls-10{stroke-width:0.57px;}.cls-11{stroke-width:0.57px;}.cls-12,.cls-13{stroke-width:0.57px;}.cls-13{stroke:#000;}.cls-14,.cls-25{stroke:#ec1c24;}.cls-14{stroke-width:0.57px;}.cls-15{fill:#231f20;}.cls-16,.cls-31{stroke:#fff;}.cls-16{stroke-width:0.57px;}.cls-17{stroke-width:0.57px;}.cls-18{stroke-width:0.57px;}.cls-19{stroke-width:0.57px;}.cls-20{fill:#f9d1e3;}.cls-21{stroke-width:0.57px;}.cls-22{stroke-width:0.06px;}.cls-23{stroke-width:0.57px;}.cls-24{stroke-width:0.57px;}.cls-25{stroke-width:0.57px;}.cls-26{stroke-width:0.57px;}.cls-27{stroke-width:0.57px;}.cls-28{stroke-width:0.58px;}.cls-29{fill:#95d4ee;}.cls-30{stroke-width:0.57px;}.cls-31{stroke-width:0.57px;}.cls-33{stroke-width:0.57px;}</style></defs><path class="cls-1" d="M36.79,103.13a8.52,8.52,0,1,1-8.52,8.51A8.51,8.51,0,0,1,36.79,103.13Z"/><path class="cls-2" d="M36.79,103.13a8.52,8.52,0,1,1-8.52,8.51A8.51,8.51,0,0,1,36.79,103.13Z"/><path class="cls-3" d="M104.81,84.69c4.06-2.9,28-9.31,28.18-2.74.15,5.66-.7,3.25,9.19,1.1,3.19-.7,21.88-3.93,20.77,3.53-.72,4.84-21.7,10.35-26,10.9-5.61.72-16.8,1.17-14.67-7.75.38-1.62-.42-.58-2.93.09-3.14.84-16.75,4.26-16.32-2.41A9.16,9.16,0,0,1,104.81,84.69Z"/><path class="cls-4" d="M104.81,84.69c4.06-2.9,28-9.31,28.18-2.74.15,5.66-.7,3.25,9.19,1.1,3.19-.7,21.88-3.93,20.77,3.53-.72,4.84-21.7,10.35-26,10.9-5.61.72-16.8,1.17-14.67-7.75.38-1.62-.42-.58-2.93.09-3.14.84-16.75,4.26-16.32-2.41A9.16,9.16,0,0,1,104.81,84.69Z"/><path class="cls-3" d="M9.19,122.59c4.06-2.91,28-9.31,28.18-2.74.16,5.66-.69,3.25,9.19,1.1,3.2-.7,21.88-3.93,20.77,3.53-.72,4.84-21.69,10.35-26,10.9-5.61.72-16.79,1.17-14.67-7.75.38-1.62-.42-.58-2.92.09C20.61,128.56,7,132,7.43,125.31A9.16,9.16,0,0,1,9.19,122.59Z"/><path class="cls-4" d="M9.19,122.59c4.06-2.91,28-9.31,28.18-2.74.16,5.66-.69,3.25,9.19,1.1,3.2-.7,21.88-3.93,20.77,3.53-.72,4.84-21.69,10.35-26,10.9-5.61.72-16.79,1.17-14.67-7.75.38-1.62-.42-.58-2.92.09C20.61,128.56,7,132,7.43,125.31A9.16,9.16,0,0,1,9.19,122.59Z"/><path class="cls-5" d="M25,177.24,93.51,84.12c6.88-8.83,20.39-7.65,26.52.52l72.55,92.72Z"/><path class="cls-6" d="M25,177.24,93.51,84.12c6.88-8.83,20.39-7.65,26.52.52l72.55,92.72Z"/><path class="cls-7" d="M7.66,177.26l34.27-46.55c2.69-3.46,10.19-3.83,13.26.26l36.27,46.35Z"/><path class="cls-8" d="M7.66,177.26l34.27-46.55c2.69-3.46,10.19-3.83,13.26.26l36.27,46.35Z"/><circle class="cls-9" cx="126.49" cy="110.23" r="16.55"/><circle class="cls-2" cx="126.49" cy="110.23" r="16.55"/><line class="cls-10" x1="126.63" y1="177.16" x2="126.63" y2="102.79"/><line class="cls-11" x1="126.63" y1="119.51" x2="120.84" y2="113.72"/><line class="cls-11" x1="126.63" y1="113.65" x2="120.84" y2="107.86"/><line class="cls-11" x1="126.63" y1="119.51" x2="132.49" y2="113.65"/><line class="cls-11" x1="126.63" y1="113.65" x2="132.49" y2="107.78"/><path class="cls-3" d="M81.38,177.27l5.05-17.89H109.1c-.21,1.27-.68,3,2.56,5.86,1.45,1.28,4.73,2.39,7,3.95,2,1.4,5.31,4.52,5.4,8H97.8L96,174.55l-1.1,2.72Z"/><path class="cls-12" d="M81.38,177.27l5.05-17.89H109.1c-.21,1.27-.68,3,2.56,5.86,1.45,1.28,4.73,2.39,7,3.95,2,1.4,5.31,4.52,5.4,8H97.8L96,174.55l-1.1,2.72Z"/><line class="cls-13" x1="123.27" y1="174.11" x2="82.34" y2="174.11"/><path class="cls-3" d="M92,161.4a2.22,2.22,0,0,0-2.18,2.29A2.26,2.26,0,0,0,92,166a2.23,2.23,0,0,0,2.18-2.3A2.26,2.26,0,0,0,92,161.4Z"/><path class="cls-14" d="M92,161.4a2.22,2.22,0,0,0-2.18,2.29A2.26,2.26,0,0,0,92,166a2.23,2.23,0,0,0,2.18-2.3A2.26,2.26,0,0,0,92,161.4Z"/><path class="cls-12" d="M114.77,167.08c-2.12-.05-5.61,6-5.35,7"/><path class="cls-12" d="M111.38,169.94c-4.08-.9-8.66-5.7-8.17-10.56"/><path class="cls-15" d="M82.81,110.44h0l-22.16,0c-3.25,0-10.13,11.19-5.57,21,0,0,8.18,11.12,8.2,11.13l-15.35,0-.24,26.05c1.51-.21,15.56-1.63,26.5-2.67,8.26-.79,11.41-6.86,11.06-11.19-.12-1.47-.07-9.92-.19-18.56.68.33,1.18.55,1.41.63,4.21,1.34,5.36,1.9,3.28,8.4-.1.31-3.54,14.24-3.56,14.31h23.19c.38-1.47,3.43-11.47,6.59-22,2.38-7.95-2.26-12.72-6.34-14.53-1.42-.63-10-5.85-18.71-10.31A24.77,24.77,0,0,0,88,111.36a17.07,17.07,0,0,0-5.22-.92"/><path class="cls-16" d="M56.93,114.66h5.73c-.49,1.39-2.25,9.78-2.28,10.19l-5.81,2.81"/><path class="cls-3" d="M67.35,81.85a5.3,5.3,0,0,1,3.46-2.38c3.92,0,1,3.25,4.19,3.25.38,0,1.16,0,1.38-.35.41-2.23,2.34-2.51,3.07-1.47a10.08,10.08,0,0,1,2.47,3.87c.06.5,1.64,4.41,1.33,5,0,.05-2.18,1.91-2.19,2l-11,9.39,1.28-8.23H61.66Z"/><path class="cls-3" d="M77,79c.44-1.71-.23-3.13-1.61-3.41a.94.94,0,0,0-1,.3L73.21,81.4c-.28,1.46,2.55,2.16,3.15,1Z"/><path class="cls-17" d="M77,79c.44-1.71-.23-3.13-1.61-3.41a.94.94,0,0,0-1,.3L73.21,81.4c-.28,1.46,2.55,2.16,3.15,1Z"/><line class="cls-18" x1="71.74" y1="90.11" x2="70.26" y2="101.42"/><polygon class="cls-3" points="79.66 89.77 82.64 110.44 60.35 110.44 65.89 89.77 79.66 89.77"/><polygon class="cls-19" points="79.66 89.77 82.64 110.44 60.35 110.44 65.89 89.77 79.66 89.77"/><path class="cls-20" d="M82,71.31A4,4,0,0,0,79.6,69c-2.61-.46-5.15.31-5.93,3.42a5.62,5.62,0,0,0,2.8,5.74C80.58,80.11,84.32,75.75,82,71.31Z"/><path class="cls-17" d="M82,71.31A4,4,0,0,0,79.6,69c-2.61-.46-5.15.31-5.93,3.42a5.62,5.62,0,0,0,2.8,5.74C80.58,80.11,84.32,75.75,82,71.31Z"/><path class="cls-21" d="M80.54,75.21c-.12-.3-.43-.46-.88-.19l-.25.2"/><path class="cls-15" d="M81.12,73.34a.35.35,0,0,0,0,.69.35.35,0,1,0,0-.69Z"/><path class="cls-22" d="M81.12,73.34a.35.35,0,0,0,0,.69.35.35,0,1,0,0-.69Z"/><path class="cls-15" d="M78.9,73.34a.35.35,0,1,0,.34.35A.35.35,0,0,0,78.9,73.34Z"/><path class="cls-22" d="M78.9,73.34a.35.35,0,1,0,.34.35A.35.35,0,0,0,78.9,73.34Z"/><path class="cls-3" d="M73,80.15c-.92-1.34-3.94-1.51-5.9,2.17L61.55,93.05H65Z"/><path class="cls-19" d="M73,80.15c-.92-1.34-3.94-1.51-5.9,2.17L61.55,93.05H65Z"/><path class="cls-15" d="M68.16,77.68c1.54-6.31,2.76-10.16,8.08-10.19,4.16,0,5.83,3.38,5.55,3.38h-6.1L74,77.68Z"/><path class="cls-17" d="M68.16,77.68c1.54-6.31,2.76-10.16,8.08-10.19,4.16,0,5.83,3.38,5.55,3.38h-6.1L74,77.68Z"/><path class="cls-19" d="M76.43,82.16c.21-.26.24-2.28,2.46-1.84,2.06.41,2.61,3.07,4.48,8.69l1,3.71"/><path class="cls-20" d="M91.1,68.19s-.52-.49-2.12-.11a4.67,4.67,0,0,0-2.13,1.62c-1.67,2.21-4.89,4.6-3.77,7.11.45,1,2.26,2.21,2.69,2.63L83.25,89.9l-3.6.15,2.14,14.61c4.55.53,6.92-2.35,9.35-8.2a148.27,148.27,0,0,0,5.84-18c1-4.61,1-9.28-3.07-10.54A4.25,4.25,0,0,0,91.1,68.19Z"/><path class="cls-23" d="M91.1,68.19s-.52-.49-2.12-.11a4.67,4.67,0,0,0-2.13,1.62c-1.67,2.21-4.89,4.6-3.77,7.11.45,1,2.26,2.21,2.69,2.63L83.25,89.9l-3.6.15,2.15,14.61c4.54.53,6.91-2.35,9.34-8.2a148.27,148.27,0,0,0,5.84-18c1-4.61,1-9.28-3.07-10.54A4.25,4.25,0,0,0,91.1,68.19Z"/><path class="cls-3" d="M30.33,140.42,48,142.69l.06,23.14c-6.3-.49-7.12,2-7.62,2.85,0,0,4.4,1.31,4.3,5.52l0,3.05H34.61c-3.41,0-5.22-2-5.12-6.24l.27-14.18,2.71-2-2.6-1Z"/><path class="cls-24" d="M30.33,140.42,48,142.69l.06,23.14c-6.3-.49-7.12,2-7.62,2.85,0,0,4.4,1.31,4.3,5.52l0,3.05H34.61c-3.41,0-5.22-2-5.12-6.24l.27-14.18,2.71-2-2.6-1Z"/><path class="cls-24" d="M44.75,174.2c-.39,0-7.59,0-8,0-3.76-.09-4.12-2.17-3.92-5.73l.51-27.25"/><path class="cls-3" d="M45.78,148.38a2.22,2.22,0,0,0-2.22-2.25,2.28,2.28,0,0,0-2.37,2.15,2.22,2.22,0,0,0,2.22,2.25A2.29,2.29,0,0,0,45.78,148.38Z"/><path class="cls-25" d="M45.78,148.38a2.22,2.22,0,0,0-2.22-2.25,2.28,2.28,0,0,0-2.37,2.15,2.22,2.22,0,0,0,2.22,2.25A2.29,2.29,0,0,0,45.78,148.38Z"/><path class="cls-26" d="M40.44,168.71c-2-.68-6,1.32-6.79,3.64"/><path class="cls-27" d="M35.49,169.73c.52-6.13,6.38-9.34,12.58-8.69"/><path class="cls-15" d="M92.81,69.69H85.89A3.44,3.44,0,0,0,82.37,73h0a3.44,3.44,0,0,0,3.52,3.33h6.92Z"/><path class="cls-28" d="M92.81,69.69H85.89A3.44,3.44,0,0,0,82.37,73h0a3.44,3.44,0,0,0,3.52,3.33h6.92Z"/><path class="cls-2" d="M77.3,75.87a.52.52,0,0,1,.45.57.46.46,0,1,1-.9,0A.52.52,0,0,1,77.3,75.87Z"/><path class="cls-3" d="M86.72,69.69H80.18A3.34,3.34,0,0,0,76.85,73h0a3.34,3.34,0,0,0,3.33,3.33h6.54Z"/><path class="cls-2" d="M86.72,69.69H80.18A3.34,3.34,0,0,0,76.85,73h0a3.34,3.34,0,0,0,3.33,3.33h6.54Z"/><path class="cls-29" d="M92.59,69.69a3.3,3.3,0,1,1-2.87,4.93,3.27,3.27,0,0,1-2.86,1.67,3.3,3.3,0,1,1,0-6.6,3.27,3.27,0,0,1,2.86,1.67A3.3,3.3,0,0,1,92.59,69.69Z"/><path class="cls-30" d="M92.59,69.69a3.3,3.3,0,1,1-2.87,4.93,3.27,3.27,0,0,1-2.86,1.67,3.3,3.3,0,1,1,0-6.6,3.27,3.27,0,0,1,2.86,1.67A3.3,3.3,0,0,1,92.59,69.69Z"/><line class="cls-31" x1="85.37" y1="137.36" x2="85.37" y2="122.43"/><path class="cls-15" d="M91.61,72.72a.35.35,0,0,0-.35.35.35.35,0,0,0,.35.34.34.34,0,0,0,.34-.34A.35.35,0,0,0,91.61,72.72Z"/><path class="cls-22" d="M91.61,72.72a.35.35,0,0,0-.35.35.35.35,0,0,0,.35.34.34.34,0,0,0,.34-.34A.35.35,0,0,0,91.61,72.72Z"/><path class="cls-15" d="M88.23,72.72a.35.35,0,0,0-.34.35.34.34,0,0,0,.34.34.35.35,0,0,0,.35-.34A.35.35,0,0,0,88.23,72.72Z"/><path class="cls-22" d="M88.23,72.72a.35.35,0,0,0-.34.35.34.34,0,0,0,.34.34.35.35,0,0,0,.35-.34A.35.35,0,0,0,88.23,72.72Z"/><path class="cls-20" d="M84.09,67.81c.4.16,2.64-.26,2.64,1.88,0,.21-3.87,1.51-2.13,5.53.29.67,0,2-.52,3.4-2.5,7.4-5,12.51-7.1,19.88-4,13.77-21.3,7.8-15.43-5.45H65c.19-.36.86-1.44,1.42-2.24.26-.36,7.3-12,7.41-12.19.44-1,1.32-2.25,2.18-3.79.34-.61-.31-2.9,1.38-4.91.55-.67,1.69-.63,2.17-1.3C80.61,67.14,82.11,66.9,84.09,67.81Z"/><path class="cls-19" d="M84.09,67.81c.4.16,2.64-.26,2.64,1.88,0,.21-3.87,1.51-2.13,5.53.29.67,0,2-.52,3.4-2.5,7.4-5,12.51-7.1,19.88-4,13.77-21.3,7.8-15.43-5.45H65c.19-.36.86-1.44,1.42-2.24.26-.36,7.3-12,7.41-12.19.44-1,1.32-2.25,2.18-3.79.34-.61-.31-2.9,1.38-4.91.55-.67,1.69-.63,2.17-1.3C80.61,67.14,82.11,66.9,84.09,67.81Z"/><path class="cls-19" d="M84.34,67.85c-2,.18-2.86,1.84-3.39,3.93"/><path class="cls-19" d="M80.38,67.78a6.38,6.38,0,0,0-2,3.25"/><path class="cls-19" d="M91.3,68.08c-.42.2-1.25.66-.76,1.45"/><line class="cls-19" x1="83.26" y1="89.74" x2="82.14" y2="93.15"/><line class="cls-19" x1="65.01" y1="93.05" x2="63.63" y2="95.43"/><path class="cls-19" d="M113.76,150.49c4.46,5,18.2,1.3,18,9.91v16.94"/><path class="cls-19" d="M131.79,161.68c-.37-9.54,13.81-6.25,15.77-10.93.05-.11,0-.07.17-.11"/><path class="cls-32" d="M129.2,131.79l0,0M106.47,144a3.2,3.2,0,0,1,.83.11,3.81,3.81,0,0,1,0-.59,3.31,3.31,0,0,1,3.31-3.31,3.22,3.22,0,0,1,1.21.23,3.4,3.4,0,0,1,0-.45,3.32,3.32,0,0,1,5.15-2.76,3.31,3.31,0,0,1,3.3-3.11,3.24,3.24,0,0,1,2.07.73,3.31,3.31,0,0,1,5.79-1.63,3.3,3.3,0,0,1,.49-.83h0l.11-.13h0l0,0h0l0,0h0l.11-.11h0l0,0h0l0,0,0,0h0l0,0,0,0,0,0h0l0,0,0,0,0,0h0l0,0h0l0,0h0l.05,0,0,0h0l0,0,0,0h0l0,0,.06,0,0,0h.07l0,0,0,0,.05,0h0l0,0H130l0,0h0l.06,0h0l0,0h.1l.07,0h1.51l.07,0H132l.05,0h0l.07,0h0l.05,0h0l0,0h0l.06,0h0l0,0h0l0,0h0l0,0,.05,0,0,0h0l0,0,0,0,0,0h0l0,0h0l0,0,0,0,0,0h0l0,0,.05,0h0l0,0,0,0,0,0,0,0,0,0h0l0,0,0,0,0,0,0,0,0,0,0,0,0,0,0,0,0,0,0,0,0,0,0,0,0,0,.05.05,0,0,0,0,0,0,0,0v0l.05.07h0l0,0v0l0,0h0l.08.14h0l0,.05h0a1.09,1.09,0,0,1,.08.15h0l0,0h0l.07.16h0a3.31,3.31,0,0,1,5.79,1.63,3.31,3.31,0,0,1,5.38,2.38,3.26,3.26,0,0,1,1.83-.55A3.31,3.31,0,0,1,150.5,140a3.4,3.4,0,0,1,0,.45,3.31,3.31,0,0,1,4.52,3.08,3.81,3.81,0,0,1-.05.59,3.26,3.26,0,0,1,.83-.11,3.31,3.31,0,0,1,0,6.62h-49.3a3.31,3.31,0,0,1,0-6.62Z"/><path class="cls-19" d="M129.2,131.79l0,0M106.47,144a3.2,3.2,0,0,1,.83.11,3.81,3.81,0,0,1,0-.59,3.31,3.31,0,0,1,3.31-3.31,3.22,3.22,0,0,1,1.21.23,3.4,3.4,0,0,1,0-.45,3.32,3.32,0,0,1,5.15-2.76,3.31,3.31,0,0,1,3.3-3.11,3.24,3.24,0,0,1,2.07.73,3.31,3.31,0,0,1,5.79-1.63,3.3,3.3,0,0,1,.49-.83h0l.11-.13h0l0,0h0l0,0h0l.11-.11h0l0,0h0l0,0,0,0h0l0,0,0,0,0,0h0l0,0,0,0,0,0h0l0,0h0l0,0h0l.05,0,0,0h0l0,0,0,0h0l0,0,.06,0,0,0h.07l0,0,0,0,.05,0h0l0,0H130l0,0h0l.06,0h0l0,0h.1l.07,0h1.51l.07,0H132l.05,0h0l.07,0h0l.05,0h0l0,0h0l.06,0h0l0,0h0l0,0h0l0,0,.05,0,0,0h0l0,0,0,0,0,0h0l0,0h0l0,0,0,0,0,0h0l0,0,.05,0h0l0,0,0,0,0,0,0,0,0,0h0l0,0,0,0,0,0,0,0,0,0,0,0,0,0,0,0,0,0,0,0,0,0,0,0,0,0,.05.05,0,0,0,0,0,0,0,0v0l.05.07h0l0,0v0l0,0h0l.08.14h0l0,.05h0a1.09,1.09,0,0,1,.08.15h0l0,0h0l.07.16h0a3.31,3.31,0,0,1,5.79,1.63,3.31,3.31,0,0,1,5.38,2.38,3.26,3.26,0,0,1,1.83-.55A3.31,3.31,0,0,1,150.5,140a3.4,3.4,0,0,1,0,.45,3.31,3.31,0,0,1,4.52,3.08,3.81,3.81,0,0,1-.05.59,3.26,3.26,0,0,1,.83-.11,3.31,3.31,0,0,1,0,6.62h-49.3a3.31,3.31,0,0,1,0-6.62Z"/><path class="cls-7" d="M99.67,177.27l-29.33,0c-1-4.47,3.12-1.28,3-5.61-.06-1.9,1.63-1.74,2.88-1.42,3.29.85,3.81-3.37,6.16-2.58,2,.7,2.17,2.56,4.1.61,1.17-1.18,3.55-1.12,3.91.72.31,1.61,2.16.92,3.48,1,.64,0,1.55.35,1.56,1.37s.21,2.94,2.06,2.56,2.34,1.12,2.23,2.89Z"/><path class="cls-33" d="M99.67,177.27l-29.33,0c-1-4.47,3.12-1.28,3-5.61-.06-1.9,1.63-1.74,2.88-1.42,3.3.85,3.81-3.37,6.16-2.58,2,.7,2.17,2.56,4.1.61,1.17-1.18,3.55-1.12,3.91.72.31,1.61,2.17.92,3.48,1,.64,0,1.55.35,1.56,1.37s.21,2.94,2.06,2.56,2.34,1.12,2.23,2.89Z"/></svg>