<svg id="Layer_1" data-name="Layer 1" xmlns="http://www.w3.org/2000/svg" viewBox="0 0 200 200"><defs><style>.cls-1{fill:#f48245;}.cls-1,.cls-11,.cls-13,.cls-27,.cls-3,.cls-5,.cls-8{fill-rule:evenodd;}.cls-10,.cls-12,.cls-14,.cls-15,.cls-16,.cls-17,.cls-18,.cls-19,.cls-2,.cls-20,.cls-21,.cls-22,.cls-23,.cls-24,.cls-25,.cls-26,.cls-4,.cls-6,.cls-7,.cls-9{fill:none;stroke-linecap:round;stroke-linejoin:round;}.cls-10,.cls-14,.cls-15,.cls-16,.cls-17,.cls-19,.cls-2,.cls-20,.cls-22,.cls-24,.cls-25,.cls-26,.cls-4,.cls-6,.cls-7,.cls-9{stroke:#231f20;}.cls-2,.cls-23{stroke-width:0.57px;}.cls-3{fill:#ffd3e9;}.cls-4{stroke-width:0.57px;}.cls-5{fill:#0094d9;}.cls-6{stroke-width:0.57px;}.cls-7{stroke-width:0.57px;}.cls-28,.cls-8{fill:#fff;}.cls-9{stroke-width:0.57px;}.cls-10,.cls-21{stroke-width:0.57px;}.cls-11{fill:#231f20;}.cls-12,.cls-21{stroke:#fff;}.cls-12{stroke-width:0.57px;}.cls-13{fill:#f9d1e3;}.cls-14{stroke-width:0.57px;}.cls-15{stroke-width:0.57px;}.cls-16{stroke-width:0.06px;}.cls-17{stroke-width:0.57px;}.cls-18,.cls-23{stroke:red;}.cls-18{stroke-width:0.57px;}.cls-19{stroke-width:0.57px;}.cls-20{stroke-width:0.57px;}.cls-22{stroke-width:0.57px;}.cls-24{stroke-width:0.57px;}.cls-25{stroke-width:0.57px;}.cls-26{stroke-width:0.57px;}.cls-27{fill:red;}</style></defs><path class="cls-1" d="M55.2,51.56l40.54,6.89A8.92,8.92,0,0,1,103,68.71l-16.67,98A8.93,8.93,0,0,1,76.08,174l-40.54-6.9a8.91,8.91,0,0,1-7.27-10.26l16.67-98A8.91,8.91,0,0,1,55.2,51.56Z"/><path class="cls-2" d="M55.2,51.56l40.54,6.89A8.92,8.92,0,0,1,103,68.71l-16.67,98A8.93,8.93,0,0,1,76.08,174l-40.54-6.9a8.91,8.91,0,0,1-7.27-10.26l16.67-98A8.91,8.91,0,0,1,55.2,51.56Z"/><path class="cls-3" d="M55.35,53.28l8.73,1.48a3.09,3.09,0,0,0-.38,1.08,3.4,3.4,0,0,0,2.78,3.91l16,2.72a3.4,3.4,0,0,0,3.92-2.78,3.3,3.3,0,0,0,0-1.13L95,60a7.69,7.69,0,0,1,6.27,8.84L84.77,166a7.7,7.7,0,0,1-8.84,6.28l-39.67-6.75A7.68,7.68,0,0,1,30,156.69L46.51,59.55A7.68,7.68,0,0,1,55.35,53.28Z"/><path class="cls-4" d="M55.35,53.28l8.73,1.48a3.11,3.11,0,0,0-.38,1.07,3.41,3.41,0,0,0,2.78,3.92l16,2.72a3.4,3.4,0,0,0,3.92-2.78,3.3,3.3,0,0,0,0-1.13L95,60a7.69,7.69,0,0,1,6.27,8.84L84.77,166a7.7,7.7,0,0,1-8.84,6.28l-39.67-6.75A7.68,7.68,0,0,1,30,156.69L46.51,59.55A7.68,7.68,0,0,1,55.35,53.28Z"/><path class="cls-5" d="M53,74.25l37.35,6.36a2.36,2.36,0,0,1,1.93,2.72h0a2.37,2.37,0,0,1-2.72,1.93L52.2,78.9A2.36,2.36,0,0,1,53,74.25Z"/><path class="cls-6" d="M53,74.25l37.35,6.36a2.36,2.36,0,0,1,1.93,2.72h0a2.37,2.37,0,0,1-2.72,1.93L52.2,78.9A2.36,2.36,0,0,1,53,74.25Z"/><path class="cls-5" d="M47.39,107.18l37.35,6.35a2.36,2.36,0,0,1,1.93,2.72h0A2.36,2.36,0,0,1,84,118.18L46.6,111.83a2.36,2.36,0,1,1,.79-4.65Z"/><path class="cls-6" d="M47.39,107.18l37.35,6.35a2.36,2.36,0,0,1,1.93,2.72h0A2.36,2.36,0,0,1,84,118.18L46.6,111.83a2.36,2.36,0,1,1,.79-4.65Z"/><path class="cls-3" d="M51.12,85.2l37.36,6.35a2.37,2.37,0,0,1,1.93,2.72h0a2.36,2.36,0,0,1-2.72,1.93L50.33,89.85a2.36,2.36,0,0,1-1.92-2.72h0A2.35,2.35,0,0,1,51.12,85.2Z"/><path class="cls-6" d="M51.12,85.2l37.36,6.35a2.37,2.37,0,0,1,1.93,2.72h0a2.36,2.36,0,0,1-2.72,1.93L50.33,89.85a2.36,2.36,0,0,1-1.92-2.72h0A2.35,2.35,0,0,1,51.12,85.2Z"/><path class="cls-5" d="M51,85.18,61.74,87a2.36,2.36,0,0,1,1.93,2.72h0A2.36,2.36,0,0,1,61,91.65L50.21,89.83A2.36,2.36,0,0,1,51,85.18Z"/><path class="cls-7" d="M51,85.18,61.74,87a2.36,2.36,0,0,1,1.93,2.72h0A2.36,2.36,0,0,1,61,91.65L50.21,89.83A2.36,2.36,0,0,1,51,85.18Z"/><path class="cls-3" d="M49.18,96.65,86.53,103a2.36,2.36,0,0,1,1.93,2.72h0a2.37,2.37,0,0,1-2.72,1.93l-37.35-6.36a2.36,2.36,0,0,1-1.93-2.72h0A2.36,2.36,0,0,1,49.18,96.65Z"/><path class="cls-6" d="M49.18,96.65,86.53,103a2.36,2.36,0,0,1,1.93,2.72h0a2.37,2.37,0,0,1-2.72,1.93l-37.35-6.36a2.36,2.36,0,0,1-1.93-2.72h0A2.36,2.36,0,0,1,49.18,96.65Z"/><path class="cls-8" d="M84.78,112.71A3.28,3.28,0,1,1,81,115.39,3.29,3.29,0,0,1,84.78,112.71Z"/><path class="cls-9" d="M84.78,112.71A3.28,3.28,0,1,1,81,115.39,3.29,3.29,0,0,1,84.78,112.71Z"/><path class="cls-8" d="M64.59,86.79a3.27,3.27,0,1,1-3.78,2.68A3.26,3.26,0,0,1,64.59,86.79Z"/><path class="cls-9" d="M64.59,86.79a3.27,3.27,0,1,1-3.78,2.68A3.26,3.26,0,0,1,64.59,86.79Z"/><path class="cls-8" d="M50,96.08a3.28,3.28,0,1,1-3.77,2.68A3.27,3.27,0,0,1,50,96.08Z"/><path class="cls-9" d="M50,96.08a3.28,3.28,0,1,1-3.77,2.68A3.27,3.27,0,0,1,50,96.08Z"/><path class="cls-8" d="M121.4,83.85l-2.7,23.82H141l-5-18.84c-.72-2.51-1.45-4.78-2.17-7.28-.52-1.8-.63-4.06-2.95-4.26a3.05,3.05,0,0,0-2.76,1.15l-3.15,1c-.06-1-.31-2.23-3.48-2l-4.19,0-.1,6.6Z"/><path class="cls-10" d="M121.4,83.85l-2.7,23.82H141l-5-18.84c-.72-2.51-1.45-4.78-2.17-7.28-.52-1.8-.63-4.06-2.95-4.26a3.05,3.05,0,0,0-2.76,1.15l-3.15,1c-.06-1-.31-2.23-3.48-2l-4.19,0-.1,6.6Z"/><path class="cls-11" d="M118.52,107.49h0l22.16,0c4.61,0,10.65,13.58,4.92,21.84l-.65.89c-2.31,3.14-6.88,9.35-6.89,9.35h15.35l.23,26c-1.5-.21-15.56-1.63-26.5-2.67-8.26-.79-11.12-6.84-11.06-11.19,0-1.67.17-18.49.18-18.55s-2.58.91-3.82,1.51c-2.14,1-2.45,2.51-.85,7.51.1.31,3.53,14.24,3.55,14.32H92c-.37-1.48-3.42-11.47-6.59-22-2.38-8,2.26-12.72,6.34-14.53,1.42-.63,10-5.85,18.71-10.31a25.33,25.33,0,0,1,2.89-1.24,16.84,16.84,0,0,1,5.22-.93"/><path class="cls-12" d="M144.45,111.75h-4.32c.49,1.38,2.25,9.77,2.28,10.18l4.5,2.42"/><path class="cls-13" d="M124.32,76c-.44-1.71.22-3.12,1.61-3.4a.93.93,0,0,1,1,.29l1.2,5.55c.28,1.47-2.55,2.17-3.15,1Z"/><path class="cls-14" d="M124.32,76c-.44-1.71.22-3.12,1.61-3.4a.93.93,0,0,1,1,.29l1.2,5.55c.28,1.47-2.55,2.17-3.15,1Z"/><path class="cls-13" d="M119.28,68.37a4,4,0,0,1,2.43-2.31c2.61-.46,5.15.3,5.94,3.42a5.66,5.66,0,0,1-2.8,5.74C120.73,77.17,117,72.81,119.28,68.37Z"/><path class="cls-14" d="M119.28,68.37a4,4,0,0,1,2.43-2.31c2.61-.46,5.15.3,5.94,3.42a5.66,5.66,0,0,1-2.8,5.74C120.73,77.17,117,72.81,119.28,68.37Z"/><path class="cls-15" d="M120.62,71.3c.12-.3.44-.46.89-.2l.25.2"/><path class="cls-11" d="M120.1,69.91a.35.35,0,0,1,.34.35.34.34,0,1,1-.68,0A.35.35,0,0,1,120.1,69.91Z"/><path class="cls-16" d="M120.1,69.91a.35.35,0,0,1,.34.35.34.34,0,1,1-.68,0A.35.35,0,0,1,120.1,69.91Z"/><path class="cls-11" d="M122.32,69.91a.35.35,0,0,1,.34.35.34.34,0,1,1-.68,0A.35.35,0,0,1,122.32,69.91Z"/><path class="cls-16" d="M122.32,69.91a.35.35,0,0,1,.34.35.34.34,0,1,1-.68,0A.35.35,0,0,1,122.32,69.91Z"/><path class="cls-11" d="M133.16,74.74c-1.55-6.32-2.77-10.16-8.09-10.19-4.16,0-5.83,3.38-5.55,3.38h6.1l1.7,6.81Z"/><path class="cls-14" d="M133.16,74.74c-1.55-6.32-2.77-10.16-8.09-10.19-4.16,0-5.83,3.38-5.55,3.38h6.1l1.7,6.81Z"/><path class="cls-13" d="M117.6,77.41V84c-2.92.19-7.22.51-7.89.59-4.63.55-8.44,1.38-13.13,1.38-1.49,0-2.54,0-3,.45a5.46,5.46,0,0,1-4.11,1.82c-.37,0-1-.43-1.2-.4a4,4,0,0,1-4.14-2c-1.72-2.65-.42-6,2.33-7.45,2.19-1.16,5.11-.86,8.76-.81h9.51Z"/><path class="cls-10" d="M117.6,77.41V84c-2.92.19-7.22.51-7.89.59-4.63.55-8.44,1.38-13.13,1.38-1.49,0-2.54,0-3,.45a5.46,5.46,0,0,1-4.11,1.82c-.37,0-1-.43-1.2-.4a4,4,0,0,1-4.14-2c-1.72-2.65-.42-6,2.33-7.45,2.19-1.16,5.11-.86,8.76-.81h9.51Z"/><path class="cls-8" d="M171,137.51l-17.68,2.26-.06,23.15c6.3-.5,7.12,2,7.62,2.84,0,0-4.4,1.32-4.3,5.53l0,3,10.17,0c3.4,0,5.21-2,5.12-6.24l-.28-14.18-2.71-2,2.6-.95Z"/><path class="cls-17" d="M171,137.51l-17.68,2.26-.06,23.15c6.3-.5,7.12,2,7.62,2.84,0,0-4.4,1.32-4.3,5.53l0,3,10.17,0c3.4,0,5.21-2,5.12-6.24l-.28-14.18-2.71-2,2.6-.95Z"/><path class="cls-17" d="M156.59,171.29c.39,0,7.59,0,8,0,3.77-.09,4.12-2.18,3.92-5.73L168,138.31"/><path class="cls-8" d="M155.55,145.43a2.22,2.22,0,0,1,2.22-2.25,2.28,2.28,0,0,1,2.37,2.15,2.22,2.22,0,0,1-2.22,2.25A2.28,2.28,0,0,1,155.55,145.43Z"/><path class="cls-18" d="M155.55,145.43a2.22,2.22,0,0,1,2.22-2.25,2.28,2.28,0,0,1,2.37,2.15,2.22,2.22,0,0,1-2.22,2.25A2.28,2.28,0,0,1,155.55,145.43Z"/><path class="cls-19" d="M160.87,165.75c2-.68,6.19,1.51,7,3.83"/><path class="cls-20" d="M165.57,166.8c-.53-6.13-6.1-9.34-12.3-8.68"/><line class="cls-21" x1="115.98" y1="134.34" x2="115.98" y2="119.41"/><path class="cls-10" d="M122.73,73.8a1.44,1.44,0,0,0,1.33-.85"/><path class="cls-10" d="M91.89,82.3c0,3.3-2.25,3.16-3.18,3.86a1.17,1.17,0,0,0-.13,1.78"/><path class="cls-8" d="M88.85,80.15a3.24,3.24,0,1,1-3.23,3.23A3.23,3.23,0,0,1,88.85,80.15Z"/><path class="cls-9" d="M88.85,80.15a3.24,3.24,0,1,1-3.23,3.23A3.23,3.23,0,0,1,88.85,80.15Z"/><path class="cls-13" d="M132.07,85.87c-5.22,7.27-4.36,9.06-14.47,13.49-2.39,1-14.92,5-15.17,5.08-2.85.93-3.2-.11-3.06-.85,0-.2-1.13-.07-1.71-.44s-.66-1.19-.84-1.07-1.61.59-2.32.83c-2.94,1-3.52-1.49-1.38-2.65,1-.55,2.34-1.08,3.47-1.6.13,0,.15-4,4-3.71,3,.24,17.17-4.3,20-6.86.11-.11,6.83-5.69,6.83-5.69Z"/><path class="cls-10" d="M132.07,85.87c-5.22,7.27-4.36,9.06-14.47,13.49-2.39,1-14.92,5-15.17,5.08-2.85.93-3.2-.11-3.06-.85,0-.2-1.13-.07-1.71-.44s-.66-1.19-.84-1.07-1.61.59-2.32.83c-2.94,1-3.52-1.49-1.38-2.65,1-.55,2.34-1.08,3.47-1.6.13,0,.15-4,4-3.71,3,.24,17.17-4.3,20-6.86.11-.11,6.83-5.69,6.83-5.69Z"/><path class="cls-10" d="M96.39,102.27c.43-.19,2.92-1.06,3.24-1.21"/><path class="cls-10" d="M99.37,103.59a11.69,11.69,0,0,0,2.11-1"/><path class="cls-10" d="M96.37,98.77a24,24,0,0,1,2.3-1"/><line class="cls-10" x1="121.33" y1="84.48" x2="121.67" y2="82.1"/><line class="cls-10" x1="127.41" y1="82.4" x2="129.11" y2="80.54"/><line class="cls-10" x1="132.07" y1="85.87" x2="133.24" y2="84"/><path class="cls-8" d="M119.94,174.38l-5.06-17.89H92.22c.2,1.27.67,3-2.56,5.86-1.45,1.29-4.73,2.39-7,4-2,1.4-5.3,4.52-5.39,8h26.24l1.84-2.65,1.09,2.72Z"/><path class="cls-22" d="M119.94,174.38l-5.06-17.89H92.22c.2,1.27.67,3-2.56,5.86-1.45,1.29-4.73,2.39-7,4-2,1.4-5.3,4.52-5.39,8h26.24l1.84-2.65,1.09,2.72Z"/><line class="cls-22" x1="78.05" y1="171.22" x2="118.98" y2="171.22"/><path class="cls-8" d="M109.34,158.51a2.23,2.23,0,0,1,2.19,2.3,2.27,2.27,0,0,1-2.22,2.3,2.23,2.23,0,0,1-2.18-2.3A2.27,2.27,0,0,1,109.34,158.51Z"/><path class="cls-23" d="M109.34,158.51a2.23,2.23,0,0,1,2.19,2.3,2.27,2.27,0,0,1-2.22,2.3,2.23,2.23,0,0,1-2.18-2.3A2.27,2.27,0,0,1,109.34,158.51Z"/><path class="cls-22" d="M86.54,164.19c2.13-.05,5.61,6,5.36,7"/><path class="cls-22" d="M89.94,167.05c4.08-.9,8.65-5.7,8.17-10.56"/><line class="cls-24" x1="83.91" y1="76.43" x2="81.99" y2="74.42"/><line class="cls-25" x1="85.72" y1="75.45" x2="84.64" y2="72.33"/><line class="cls-26" x1="87.91" y1="75.13" x2="88.28" y2="72.75"/><polyline class="cls-21" points="131.61 139.54 137.49 139.54 135.29 142.66"/><path class="cls-27" d="M101.2,53.62a8.29,8.29,0,1,1-8.29,8.29,8.29,8.29,0,0,1,8.29-8.29"/><path class="cls-28" d="M104.79,65.17l-.14.81-4.58-.78a1.67,1.67,0,0,1,.2-.58,3.06,3.06,0,0,1,.73-.82,8.72,8.72,0,0,1,1.29-.85,9.87,9.87,0,0,0,1.78-1.21,1.75,1.75,0,0,0,.57-1,1.14,1.14,0,0,0-.21-.91,1.51,1.51,0,0,0-1.94-.31,1.4,1.4,0,0,0-.55.95l-.85-.24A2.15,2.15,0,0,1,102,58.9a2.27,2.27,0,0,1,1.66-.24,2.22,2.22,0,0,1,1.48.82,1.84,1.84,0,0,1,.35,1.47,2.14,2.14,0,0,1-.31.79,3.27,3.27,0,0,1-.71.75,16.05,16.05,0,0,1-1.52,1c-.59.34-1,.57-1.14.7a3.44,3.44,0,0,0-.44.4Zm-6-.2L98,64.82l.94-5.42a4.53,4.53,0,0,1-.91.45,5.5,5.5,0,0,1-1,.28l.14-.82a5.13,5.13,0,0,0,1.39-.6,3.17,3.17,0,0,0,.91-.79L100,58Z"/></svg>